<svg data-v-423bf9ae="" xmlns="http://www.w3.org/2000/svg" viewBox="0 0 180.48241736028504 60" class="font"><!----><!----><!----><g data-v-423bf9ae="" id="64db0d33-f63e-446a-8949-7eb5f50fcbc4" fill="#fff" transform="matrix(6.0301508693628145,0,0,6.0301508693628145,-5.005028825836263,-19.778893963730297)"><path d="M7.34 3.28C6.87 3.36 6.37 3.39 5.53 3.39L0.84 3.39L0.84 3.42C1.23 3.64 1.58 4.12 1.58 5.49L1.58 11.02C1.58 12.17 1.18 12.85 0.83 13.09L0.83 13.12L4.26 13.12L4.26 13.09C3.89 12.85 3.50 12.18 3.50 11.02L3.50 8.79L4.83 8.79C5.53 8.79 6.17 9.20 6.36 9.80L6.38 9.80L6.83 7.28C6.41 7.36 5.74 7.39 4.73 7.39L3.50 7.39L3.50 4.79L5.07 4.79C6.16 4.79 7.06 5.08 7.56 5.91L7.59 5.89ZM8.89 13.12L12.33 13.12L12.33 13.09C11.97 12.85 11.58 12.18 11.58 11.02L11.58 5.49C11.58 4.34 11.98 3.65 12.33 3.42L12.33 3.39L8.89 3.39L8.89 3.42C9.25 3.65 9.65 4.33 9.65 5.49L9.65 11.02C9.65 12.17 9.24 12.85 8.89 13.09ZM16.31 13.12L19.88 13.12L19.88 13.09C19.61 12.82 19.42 12.14 19.75 11.16L21.85 5.17C22.13 4.35 22.54 3.71 23.03 3.42L23.03 3.39L20.03 3.39L20.03 3.42C20.26 3.68 20.29 4.23 20.10 4.79L18.93 8.30C18.70 8.96 18.38 10.15 18.20 11.19L18.14 11.19C18.00 10.16 17.64 8.97 17.42 8.32L16.18 4.76C16.00 4.23 16.10 3.68 16.32 3.42L16.32 3.39L13.05 3.39L13.05 3.42C13.62 3.84 14.07 4.59 14.32 5.29L16.44 11.16C16.79 12.12 16.58 12.82 16.31 13.09ZM30.73 10.43C30.13 11.28 29.15 11.75 27.92 11.75L26.39 11.75L26.39 8.60L27.68 8.60C28.46 8.60 28.97 8.85 29.20 9.48L29.23 9.48L29.64 7.13C29.01 7.21 28.62 7.22 27.45 7.22L26.39 7.22L26.39 4.76L28.24 4.76C29.33 4.76 30.10 5.11 30.44 5.80L30.46 5.78L30.23 3.28C29.92 3.35 29.30 3.39 28.74 3.39L23.72 3.39L23.72 3.42C24.08 3.65 24.47 4.33 24.47 5.49L24.47 11.02C24.47 12.17 24.07 12.85 23.72 13.09L23.72 13.12L28.66 13.12C29.48 13.12 29.85 13.15 30.37 13.23L30.76 10.44Z"></path></g><!----><!----></svg>